<?xml version="1.0" encoding="UTF-8" standalone="no"?><svg xmlns="http://www.w3.org/2000/svg" xmlns:xlink="http://www.w3.org/1999/xlink" contentScriptType="application/ecmascript" contentStyleType="text/css" height="131px" preserveAspectRatio="none" style="width:2077px;height:131px;" version="1.1" viewBox="0 0 2077 131" width="2077px" zoomAndPan="magnify"><defs><filter height="300%" id="fmxrn6h2y354h" width="300%" x="-1" y="-1"><feGaussianBlur result="blurOut" stdDeviation="2.0"/><feColorMatrix in="blurOut" result="blurOut2" type="matrix" values="0 0 0 0 0 0 0 0 0 0 0 0 0 0 0 0 0 0 .4 0"/><feOffset dx="4.0" dy="4.0" in="blurOut2" result="blurOut3"/><feBlend in="SourceGraphic" in2="blurOut3" mode="normal"/></filter></defs><g><!--MD5=[26e17b15ab99648937a12df282613610]
entity dump--><rect fill="#FEFECE" filter="url(#fmxrn6h2y354h)" height="39.0679" style="stroke: #000000; stroke-width: 1.5;" width="178" x="6" y="45.93"/><text fill="#000000" font-family="sans-serif" font-size="14" lengthAdjust="spacingAndGlyphs" textLength="158" x="16" y="70.8959">ExportRelacionalOffline</text><!--MD5=[f049d2bba288a9304afb39f81cd10e37]
entity extracao--><rect fill="#FEFECE" filter="url(#fmxrn6h2y354h)" height="39.0679" style="stroke: #000000; stroke-width: 1.5;" width="162" x="244" y="45.93"/><text fill="#000000" font-family="sans-serif" font-size="14" lengthAdjust="spacingAndGlyphs" textLength="142" x="254" y="70.8959">ExtracaoSubconjunto</text><!--MD5=[e4cb297f9b3b6be26bc1b8d7fca57844]
entity mascarar--><rect fill="#FEFECE" filter="url(#fmxrn6h2y354h)" height="39.0679" style="stroke: #000000; stroke-width: 1.5;" width="101" x="466" y="45.93"/><text fill="#000000" font-family="sans-serif" font-size="14" lengthAdjust="spacingAndGlyphs" textLength="81" x="476" y="70.8959">MascararPII</text><!--MD5=[bd931e061b824d732c7ae762aee0f850]
entity bronze--><rect fill="#FEFECE" filter="url(#fmxrn6h2y354h)" height="39.0679" style="stroke: #000000; stroke-width: 1.5;" width="126" x="627" y="45.93"/><text fill="#000000" font-family="sans-serif" font-size="14" lengthAdjust="spacingAndGlyphs" textLength="106" x="637" y="70.8959">ArquivosBronze</text><!--MD5=[b4c6c09d29f62c9596c3353595d38874]
entity hdfsBronze--><path d="M813,51.43 C813,41.43 923.5,41.43 923.5,41.43 C923.5,41.43 1034,41.43 1034,51.43 L1034,79.4979 C1034,89.4979 923.5,89.4979 923.5,89.4979 C923.5,89.4979 813,89.4979 813,79.4979 L813,51.43 " fill="#FEFECE" filter="url(#fmxrn6h2y354h)" style="stroke: #000000; stroke-width: 1.5;"/><path d="M813,51.43 C813,61.43 923.5,61.43 923.5,61.43 C923.5,61.43 1034,61.43 1034,51.43 " fill="none" style="stroke: #000000; stroke-width: 1.5;"/><text fill="#000000" font-family="sans-serif" font-size="14" lengthAdjust="spacingAndGlyphs" textLength="201" x="823" y="80.3959">HDFSDadosLaboratorioBronze</text><!--MD5=[28ccba292d002db2aacfc8b5b48a4c5e]
entity hiveExt--><rect fill="#FEFECE" filter="url(#fmxrn6h2y354h)" height="39.0679" style="stroke: #000000; stroke-width: 1.5;" width="159" x="1094" y="45.93"/><text fill="#000000" font-family="sans-serif" font-size="14" lengthAdjust="spacingAndGlyphs" textLength="139" x="1104" y="70.8959">TabelasHiveExternas</text><!--MD5=[a6fbe74027de1d9694fc4952e8938a28]
entity atlasReg--><rect fill="#FEFECE" filter="url(#fmxrn6h2y354h)" height="39.0679" style="stroke: #000000; stroke-width: 1.5;" width="178" x="1313" y="8.93"/><text fill="#000000" font-family="sans-serif" font-size="14" lengthAdjust="spacingAndGlyphs" textLength="158" x="1323" y="33.8959">RegistroNoApacheAtlas</text><!--MD5=[2046a64bbddb2b3fba7379e1ca2b97c1]
entity mcpTools--><rect fill="#FEFECE" filter="url(#fmxrn6h2y354h)" height="39.0679" style="stroke: #000000; stroke-width: 1.5;" width="136" x="1551" y="7.93"/><text fill="#000000" font-family="sans-serif" font-size="14" lengthAdjust="spacingAndGlyphs" textLength="116" x="1561" y="32.8959">ToolsMCPCatalog</text><!--MD5=[81ab7f2c5b5bfabc0cebce5e66d0e3c8]
entity jdbcExec--><rect fill="#FEFECE" filter="url(#fmxrn6h2y354h)" height="39.0679" style="stroke: #000000; stroke-width: 1.5;" width="136" x="1551" y="81.93"/><text fill="#000000" font-family="sans-serif" font-size="14" lengthAdjust="spacingAndGlyphs" textLength="116" x="1561" y="106.8959">ExecutorSQLJDBC</text><!--MD5=[3b276c35194a5241cefb1924ca12e5e7]
entity harness--><rect fill="#FEFECE" filter="url(#fmxrn6h2y354h)" height="39.0679" style="stroke: #000000; stroke-width: 1.5;" width="164" x="1902" y="45.93"/><text fill="#000000" font-family="sans-serif" font-size="14" lengthAdjust="spacingAndGlyphs" textLength="144" x="1912" y="70.8959">HarnessExperimental</text><!--MD5=[9d385a4a8aa640ad1c4c89dc9be897fa]
entity agente--><rect fill="#FEFECE" filter="url(#fmxrn6h2y354h)" height="39.0679" style="stroke: #000000; stroke-width: 1.5;" width="95" x="1747" y="8.93"/><text fill="#000000" font-family="sans-serif" font-size="14" lengthAdjust="spacingAndGlyphs" textLength="75" x="1757" y="33.8959">AgenteLLM</text><!--MD5=[2818244f968cd075d085e312eaa05b8b]
link dump to extracao--><path d="M184.48,65.47 C201.87,65.47 220.1,65.47 237.42,65.47 " fill="none" id="dump-&gt;extracao" style="stroke: #A80036; stroke-width: 1.0;"/><polygon fill="#A80036" points="242.25,65.47,233.25,61.47,237.25,65.47,233.25,69.47,242.25,65.47" style="stroke: #A80036; stroke-width: 1.0;"/><!--MD5=[2a39f0ef2ae276b8869ace5f7d979771]
link extracao to mascarar--><path d="M406.37,65.47 C424.09,65.47 442.5,65.47 459.03,65.47 " fill="none" id="extracao-&gt;mascarar" style="stroke: #A80036; stroke-width: 1.0;"/><polygon fill="#A80036" points="464,65.47,455,61.47,459,65.47,455,69.47,464,65.47" style="stroke: #A80036; stroke-width: 1.0;"/><!--MD5=[d65441b5996cf91dcd4ce35eeca9e610]
link mascarar to bronze--><path d="M567.1,65.47 C583.67,65.47 602.44,65.47 620.19,65.47 " fill="none" id="mascarar-&gt;bronze" style="stroke: #A80036; stroke-width: 1.0;"/><polygon fill="#A80036" points="625.17,65.47,616.17,61.47,620.17,65.47,616.17,69.47,625.17,65.47" style="stroke: #A80036; stroke-width: 1.0;"/><!--MD5=[52ac3d4ad135cd6a0610fd3f8434b0fd]
link bronze to hdfsBronze--><path d="M753.34,65.47 C769.83,65.47 788.16,65.47 806.5,65.47 " fill="none" id="bronze-&gt;hdfsBronze" style="stroke: #A80036; stroke-width: 1.0;"/><polygon fill="#A80036" points="811.21,65.47,802.21,61.47,806.21,65.47,802.21,69.47,811.21,65.47" style="stroke: #A80036; stroke-width: 1.0;"/><!--MD5=[9319c78bb6a0682b3ff8e6cadeec6d9f]
link hdfsBronze to hiveExt--><path d="M1034.36,65.47 C1052.13,65.47 1070.29,65.47 1087.36,65.47 " fill="none" id="hdfsBronze-&gt;hiveExt" style="stroke: #A80036; stroke-width: 1.0;"/><polygon fill="#A80036" points="1092.09,65.47,1083.1015,61.4443,1087.09,65.4557,1083.0786,69.4443,1092.09,65.47" style="stroke: #A80036; stroke-width: 1.0;"/><!--MD5=[2fa1bc7c79dfc59d541787f4432998e4]
link hiveExt to atlasReg--><path d="M1253.4,52.58 C1270.61,49.77 1288.98,46.77 1306.72,43.87 " fill="none" id="hiveExt-&gt;atlasReg" style="stroke: #A80036; stroke-width: 1.0;"/><polygon fill="#A80036" points="1311.21,43.13,1301.6795,40.6461,1306.2765,43.9427,1302.9799,48.5397,1311.21,43.13" style="stroke: #A80036; stroke-width: 1.0;"/><!--MD5=[6a6fc5688bb96f499a56bc5b89cc5009]
link atlasReg to mcpTools--><path d="M1491.38,28.05 C1509.02,27.97 1527.37,27.89 1544.44,27.81 " fill="none" id="atlasReg-&gt;mcpTools" style="stroke: #A80036; stroke-width: 1.0;"/><polygon fill="#A80036" points="1549.16,27.79,1540.1373,23.8415,1544.1601,27.8186,1540.183,31.8414,1549.16,27.79" style="stroke: #A80036; stroke-width: 1.0;"/><!--MD5=[b1d590052df67af9875e1486681fa620]
link hiveExt to jdbcExec--><path d="M1253.28,71.86 C1335.76,78.56 1464.25,88.99 1544.64,95.51 " fill="none" id="hiveExt-&gt;jdbcExec" style="stroke: #A80036; stroke-width: 1.0;"/><polygon fill="#A80036" points="1549.32,95.89,1540.6821,91.1585,1544.3372,95.476,1540.0197,99.131,1549.32,95.89" style="stroke: #A80036; stroke-width: 1.0;"/><!--MD5=[d2b41998db85a55ec1144c2ec6e98753]
link jdbcExec to harness--><path d="M1687.43,94.78 C1746.12,88.96 1831.58,80.48 1895.53,74.14 " fill="none" id="jdbcExec-&gt;harness" style="stroke: #A80036; stroke-width: 1.0;"/><polygon fill="#A80036" points="1900.14,73.68,1890.7849,70.6007,1895.1651,74.1803,1891.5855,78.5606,1900.14,73.68" style="stroke: #A80036; stroke-width: 1.0;"/><!--MD5=[1d616b90ba491a597439aed35a4c38cb]
link mcpTools to agente--><path d="M1687.08,27.85 C1704.83,27.95 1723.74,28.06 1740.62,28.16 " fill="none" id="mcpTools-&gt;agente" style="stroke: #A80036; stroke-width: 1.0;"/><polygon fill="#A80036" points="1745.23,28.19,1736.253,24.1386,1740.2301,28.1614,1736.2073,32.1385,1745.23,28.19" style="stroke: #A80036; stroke-width: 1.0;"/><!--MD5=[a1f19a0f8bfd2519afd2ab9104bfe4ee]
link agente to harness--><path d="M1842.33,37.71 C1858.51,40.9 1877.2,44.59 1895.56,48.21 " fill="none" id="agente-&gt;harness" style="stroke: #A80036; stroke-width: 1.0;"/><polygon fill="#A80036" points="1900.29,49.14,1892.2397,43.4662,1895.3855,48.1677,1890.684,51.3134,1900.29,49.14" style="stroke: #A80036; stroke-width: 1.0;"/><!--MD5=[3b4ceca5f1df98bc57bc1cbc686b0970]
@startuml
left to right direction
skinparam backgroundColor transparent

rectangle "ExportRelacionalOffline" as dump
rectangle "ExtracaoSubconjunto" as extracao
rectangle "MascararPII" as mascarar
rectangle "ArquivosBronze" as bronze
database "HDFSDadosLaboratorioBronze" as hdfsBronze
rectangle "TabelasHiveExternas" as hiveExt
rectangle "RegistroNoApacheAtlas" as atlasReg
rectangle "ToolsMCPCatalog" as mcpTools
rectangle "ExecutorSQLJDBC" as jdbcExec
rectangle "HarnessExperimental" as harness
rectangle "AgenteLLM" as agente

dump - -> extracao
extracao - -> mascarar
mascarar - -> bronze
bronze - -> hdfsBronze
hdfsBronze - -> hiveExt
hiveExt - -> atlasReg
atlasReg - -> mcpTools
hiveExt - -> jdbcExec
jdbcExec - -> harness
mcpTools - -> agente
agente - -> harness
@enduml

PlantUML version 1.2020.02(Sun Mar 01 07:22:07 GMT-03:00 2020)
(GPL source distribution)
Java Runtime: OpenJDK Runtime Environment
JVM: OpenJDK 64-Bit Server VM
Java Version: 25+36-LTS
Operating System: Linux
Default Encoding: UTF-8
Language: en
Country: US
--></g></svg>