<?xml version="1.0" encoding="UTF-8" standalone="no"?><svg xmlns="http://www.w3.org/2000/svg" xmlns:xlink="http://www.w3.org/1999/xlink" contentScriptType="application/ecmascript" contentStyleType="text/css" height="873px" preserveAspectRatio="none" style="width:564px;height:873px;" version="1.1" viewBox="0 0 564 873" width="564px" zoomAndPan="magnify"><defs><filter height="300%" id="fogpaw91hn7qr" width="300%" x="-1" y="-1"><feGaussianBlur result="blurOut" stdDeviation="2.0"/><feColorMatrix in="blurOut" result="blurOut2" type="matrix" values="0 0 0 0 0 0 0 0 0 0 0 0 0 0 0 0 0 0 .4 0"/><feOffset dx="4.0" dy="4.0" in="blurOut2" result="blurOut3"/><feBlend in="SourceGraphic" in2="blurOut3" mode="normal"/></filter></defs><g><!--MD5=[33607ebfc4f246ac645613fc9f22170d]
cluster vpc--><rect fill="#FFFFFF" filter="url(#fogpaw91hn7qr)" height="648.41" style="stroke: #000000; stroke-width: 1.5;" width="375" x="22" y="213.59"/><path d="M141,214.59 L141,225.6579 L131,235.6579 L22,235.6579 " fill="none" style="stroke: #000000; stroke-width: 1.5;"/><text fill="#000000" font-family="sans-serif" font-size="14" font-weight="bold" lengthAdjust="spacingAndGlyphs" textLength="109" x="25" y="229.5559">VPCLaboratorio</text><!--MD5=[958e29f47e255613c1b20ef5b8b8e242]
cluster subPub--><rect fill="#FFFFFF" filter="url(#fogpaw91hn7qr)" height="93.07" style="stroke: #000000; stroke-width: 1.5;" width="234" x="139" y="312.66"/><path d="M248,313.66 L248,324.7279 L238,334.7279 L139,334.7279 " fill="none" style="stroke: #000000; stroke-width: 1.5;"/><text fill="#000000" font-family="sans-serif" font-size="14" font-weight="bold" lengthAdjust="spacingAndGlyphs" textLength="99" x="142" y="328.6259">SubnetPublica</text><!--MD5=[d3469fcac813ef6178aca7c683b4c7df]
cluster subPrivApp--><rect fill="#FFFFFF" filter="url(#fogpaw91hn7qr)" height="192.13" style="stroke: #000000; stroke-width: 1.5;" width="208" x="161" y="429.73"/><path d="M338,430.73 L338,441.7979 L328,451.7979 L161,451.7979 " fill="none" style="stroke: #000000; stroke-width: 1.5;"/><text fill="#000000" font-family="sans-serif" font-size="14" font-weight="bold" lengthAdjust="spacingAndGlyphs" textLength="167" x="164" y="445.6959">SubnetPrivadaAplicacao</text><!--MD5=[fcdbe9da7de3035282cb8d131cdf040d]
cluster subPrivDados--><rect fill="#FFFFFF" filter="url(#fogpaw91hn7qr)" height="192.14" style="stroke: #000000; stroke-width: 1.5;" width="327" x="46" y="645.86"/><path d="M200,646.86 L200,657.9279 L190,667.9279 L46,667.9279 " fill="none" style="stroke: #000000; stroke-width: 1.5;"/><text fill="#000000" font-family="sans-serif" font-size="14" font-weight="bold" lengthAdjust="spacingAndGlyphs" textLength="144" x="49" y="661.8259">SubnetPrivadaDados</text><!--MD5=[6fa2a73fa6de1f9868639b9edea5c786]
entity sgEdge--><rect fill="#FEFECE" filter="url(#fogpaw91hn7qr)" height="39.0679" style="stroke: #000000; stroke-width: 1.5;" width="72" x="220" y="251.59"/><text fill="#000000" font-family="sans-serif" font-size="14" lengthAdjust="spacingAndGlyphs" textLength="52" x="230" y="276.5559">SGEdge</text><!--MD5=[f28d713493c3de30a90fd72936ba0287]
entity bastion--><rect fill="#FEFECE" filter="url(#fogpaw91hn7qr)" height="39.0679" style="stroke: #000000; stroke-width: 1.5;" width="202" x="155" y="350.66"/><text fill="#000000" font-family="sans-serif" font-size="14" lengthAdjust="spacingAndGlyphs" textLength="182" x="165" y="375.6259">SessionManagerOuBastion</text><!--MD5=[f3b72145d7ffdc33b928944faf2b6dbb]
entity sgApp--><rect fill="#FEFECE" filter="url(#fogpaw91hn7qr)" height="39.0679" style="stroke: #000000; stroke-width: 1.5;" width="119" x="199.5" y="467.73"/><text fill="#000000" font-family="sans-serif" font-size="14" lengthAdjust="spacingAndGlyphs" textLength="99" x="209.5" y="492.6959">SGInternalApp</text><!--MD5=[2f9a29111282a576c69a3d6548bf8838]
entity appHost--><rect fill="#FEFECE" filter="url(#fogpaw91hn7qr)" height="39.0679" style="stroke: #000000; stroke-width: 1.5;" width="176" x="177" y="566.8"/><text fill="#000000" font-family="sans-serif" font-size="14" lengthAdjust="spacingAndGlyphs" textLength="156" x="187" y="591.7659">InstanciaAplicacaoMCP</text><!--MD5=[15d8706226dc160e24a2d9b5a062e22e]
entity sgData--><rect fill="#FEFECE" filter="url(#fogpaw91hn7qr)" height="39.0679" style="stroke: #000000; stroke-width: 1.5;" width="106" x="225" y="683.86"/><text fill="#000000" font-family="sans-serif" font-size="14" lengthAdjust="spacingAndGlyphs" textLength="86" x="235" y="708.8259">SGDataPlane</text><!--MD5=[16d0195d488b83634e6af8322ca2d944]
entity clusterMaster--><rect fill="#FEFECE" filter="url(#fogpaw91hn7qr)" height="39.0679" style="stroke: #000000; stroke-width: 1.5;" width="129" x="62.5" y="782.93"/><text fill="#000000" font-family="sans-serif" font-size="14" lengthAdjust="spacingAndGlyphs" textLength="109" x="72.5" y="807.8959">InstanciaMaster</text><!--MD5=[c91f97837312c72869a41bb1d7fe2729]
entity clusterWorker--><rect fill="#FEFECE" filter="url(#fogpaw91hn7qr)" height="39.0679" style="stroke: #000000; stroke-width: 1.5;" width="130" x="227" y="782.93"/><text fill="#000000" font-family="sans-serif" font-size="14" lengthAdjust="spacingAndGlyphs" textLength="110" x="237" y="807.8959">InstanciaWorker</text><!--MD5=[bb4aa2943efa55fdf519a82d33b3b325]
entity avaliador--><ellipse cx="256" cy="17.96" fill="#FEFECE" filter="url(#fogpaw91hn7qr)" rx="8" ry="8" style="stroke: #A80036; stroke-width: 1.5;"/><path d="M256,25.96 L256,52.96 M243,33.96 L269,33.96 M256,52.96 L243,67.96 M256,52.96 L269,67.96 " fill="none" filter="url(#fogpaw91hn7qr)" style="stroke: #A80036; stroke-width: 1.5;"/><text fill="#000000" font-family="sans-serif" font-size="14" lengthAdjust="spacingAndGlyphs" textLength="110" x="201" y="88.4259">ClienteAvaliador</text><!--MD5=[b9261202703b0f5db9a642a622a50478]
entity igw--><rect fill="#FEFECE" filter="url(#fogpaw91hn7qr)" height="39.0679" style="stroke: #000000; stroke-width: 1.5;" width="132" x="190" y="152.52"/><text fill="#000000" font-family="sans-serif" font-size="14" lengthAdjust="spacingAndGlyphs" textLength="112" x="200" y="177.4859">InternetGateway</text><!--MD5=[b165ca7cce796f881c879adda4a6bef9]
entity s3--><rect fill="#FEFECE" filter="url(#fogpaw91hn7qr)" height="39.0679" style="stroke: #000000; stroke-width: 1.5;" width="141" x="412.5" y="782.93"/><text fill="#000000" font-family="sans-serif" font-size="14" lengthAdjust="spacingAndGlyphs" textLength="121" x="422.5" y="807.8959">BucketS3Evidence</text><!--MD5=[94b31b0207a6a76177c0129ce5eb326f]
link avaliador to igw--><path d="M256,92.97 C256,110.56 256,130.49 256,145.81 " fill="none" id="avaliador-&gt;igw" style="stroke: #A80036; stroke-width: 1.0;"/><polygon fill="#A80036" points="256,150.56,260,141.56,256,145.56,252,141.56,256,150.56" style="stroke: #A80036; stroke-width: 1.0;"/><!--MD5=[eab30096d6aa861000b251f54aa4954f]
link igw to sgEdge--><path d="M256,191.77 C256,206.85 256,228.2 256,244.8 " fill="none" id="igw-&gt;sgEdge" style="stroke: #A80036; stroke-width: 1.0;"/><polygon fill="#A80036" points="256,249.62,260,240.62,256,244.62,252,240.62,256,249.62" style="stroke: #A80036; stroke-width: 1.0;"/><!--MD5=[a65f9c868c8b76d7c5079239bc6bff5a]
link sgEdge to bastion--><path d="M256,290.84 C256,305.92 256,327.26 256,343.87 " fill="none" id="sgEdge-&gt;bastion" style="stroke: #A80036; stroke-width: 1.0;"/><polygon fill="#A80036" points="256,348.69,260,339.69,256,343.69,252,339.69,256,348.69" style="stroke: #A80036; stroke-width: 1.0;"/><!--MD5=[0dc7e29a1b8a100659b9754e14c05e93]
link sgApp to appHost--><path d="M260.16,506.98 C261.09,522.05 262.41,543.4 263.43,560 " fill="none" id="sgApp-&gt;appHost" style="stroke: #A80036; stroke-width: 1.0;"/><polygon fill="#A80036" points="263.73,564.83,267.1559,555.5962,263.4154,559.8399,259.1717,556.0995,263.73,564.83" style="stroke: #A80036; stroke-width: 1.0;"/><!--MD5=[8ad762a64fdd39eec41e227e049a3c2e]
link sgData to clusterMaster--><path d="M248.53,723.34 C223.69,739.31 188.1,762.19 161.85,779.06 " fill="none" id="sgData-&gt;clusterMaster" style="stroke: #A80036; stroke-width: 1.0;"/><polygon fill="#A80036" points="157.67,781.75,167.4059,780.2629,161.8801,779.0527,163.0903,773.5268,157.67,781.75" style="stroke: #A80036; stroke-width: 1.0;"/><!--MD5=[aa009709f1c8f7815244b965fdb7a1e1]
link sgData to clusterWorker--><path d="M280.7,723.11 C282.87,738.19 285.95,759.54 288.35,776.14 " fill="none" id="sgData-&gt;clusterWorker" style="stroke: #A80036; stroke-width: 1.0;"/><polygon fill="#A80036" points="289.05,780.98,291.7217,771.5004,288.3349,776.0314,283.8039,772.6446,289.05,780.98" style="stroke: #A80036; stroke-width: 1.0;"/><!--MD5=[860e46213d4b0cfaf424a628350da751]
link bastion to sgApp--><path d="M256.5,390.2 C257,409.52 257.78,439.57 258.34,460.91 " fill="none" id="bastion-&gt;sgApp" style="stroke: #A80036; stroke-width: 1.0;"/><polygon fill="#A80036" points="258.46,465.72,262.2273,456.6202,258.3315,460.7217,254.23,456.8258,258.46,465.72" style="stroke: #A80036; stroke-width: 1.0;"/><!--MD5=[69bfc93ef328b1971d93ebcc7112e730]
link appHost to sgData--><path d="M267.15,606.33 C269.33,625.65 272.72,655.7 275.14,677.05 " fill="none" id="appHost-&gt;sgData" style="stroke: #A80036; stroke-width: 1.0;"/><polygon fill="#A80036" points="275.68,681.86,278.6528,672.4705,275.1231,676.8911,270.7025,673.3615,275.68,681.86" style="stroke: #A80036; stroke-width: 1.0;"/><!--MD5=[ca964c6b95b28c18ddca4ed7d467b055]
link sgData to s3--><path d="M318.01,723.34 C352.3,739.58 401.67,762.96 437.46,779.9 " fill="none" id="sgData-&gt;s3" style="stroke: #A80036; stroke-width: 1.0;"/><polygon fill="#A80036" points="441.72,781.92,435.3048,774.447,437.2031,779.7759,431.8742,781.6741,441.72,781.92" style="stroke: #A80036; stroke-width: 1.0;"/><!--MD5=[d80235a8e1b4ccc6832bb171aac32b74]
@startuml
top to bottom direction
skinparam backgroundColor transparent

actor ClienteAvaliador as avaliador
rectangle "InternetGateway" as igw

frame "VPCLaboratorio" as vpc {
  rectangle "SGEdge" as sgEdge

  frame "SubnetPublica" as subPub {
    rectangle "SessionManagerOuBastion" as bastion
  }

  frame "SubnetPrivadaAplicacao" as subPrivApp {
    rectangle "SGInternalApp" as sgApp
    rectangle "InstanciaAplicacaoMCP" as appHost
  }

  frame "SubnetPrivadaDados" as subPrivDados {
    rectangle "SGDataPlane" as sgData
    rectangle "InstanciaMaster" as clusterMaster
    rectangle "InstanciaWorker" as clusterWorker
  }
}

rectangle "BucketS3Evidence" as s3

avaliador - -> igw
igw - -> sgEdge
sgEdge - -> bastion
sgApp - -> appHost
sgData - -> clusterMaster
sgData - -> clusterWorker
bastion - -> sgApp
appHost - -> sgData
sgData - -> s3
@enduml

PlantUML version 1.2020.02(Sun Mar 01 07:22:07 GMT-03:00 2020)
(GPL source distribution)
Java Runtime: OpenJDK Runtime Environment
JVM: OpenJDK 64-Bit Server VM
Java Version: 25+36-LTS
Operating System: Linux
Default Encoding: UTF-8
Language: en
Country: US
--></g></svg>