<?xml version="1.0" encoding="UTF-8" standalone="no"?><svg xmlns="http://www.w3.org/2000/svg" xmlns:xlink="http://www.w3.org/1999/xlink" contentScriptType="application/ecmascript" contentStyleType="text/css" height="895px" preserveAspectRatio="none" style="width:454px;height:895px;" version="1.1" viewBox="0 0 454 895" width="454px" zoomAndPan="magnify"><defs><filter height="300%" id="f1lbz2df9dvsgc" width="300%" x="-1" y="-1"><feGaussianBlur result="blurOut" stdDeviation="2.0"/><feColorMatrix in="blurOut" result="blurOut2" type="matrix" values="0 0 0 0 0 0 0 0 0 0 0 0 0 0 0 0 0 0 .4 0"/><feOffset dx="4.0" dy="4.0" in="blurOut2" result="blurOut3"/><feBlend in="SourceGraphic" in2="blurOut3" mode="normal"/></filter></defs><g><!--MD5=[33607ebfc4f246ac645613fc9f22170d]
cluster vpc--><rect fill="#FFFFFF" filter="url(#f1lbz2df9dvsgc)" height="588.41" style="stroke: #000000; stroke-width: 1.5;" width="421" x="22" y="213.52"/><path d="M141,214.52 L141,225.5879 L131,235.5879 L22,235.5879 " fill="none" style="stroke: #000000; stroke-width: 1.5;"/><text fill="#000000" font-family="sans-serif" font-size="14" font-weight="bold" lengthAdjust="spacingAndGlyphs" textLength="109" x="25" y="229.4859">VPCLaboratorio</text><!--MD5=[bba39dd7140ae3ff612521b10bbd60cb]
entity subnetPublic--><rect fill="#FEFECE" filter="url(#f1lbz2df9dvsgc)" height="39.0679" style="stroke: #000000; stroke-width: 1.5;" width="109" x="177.5" y="251.52"/><text fill="#000000" font-family="sans-serif" font-size="14" lengthAdjust="spacingAndGlyphs" textLength="89" x="187.5" y="276.4859">SubnetPublic</text><!--MD5=[6fa2a73fa6de1f9868639b9edea5c786]
entity sgEdge--><rect fill="#FEFECE" filter="url(#f1lbz2df9dvsgc)" height="39.0679" style="stroke: #000000; stroke-width: 1.5;" width="72" x="196" y="350.59"/><text fill="#000000" font-family="sans-serif" font-size="14" lengthAdjust="spacingAndGlyphs" textLength="52" x="206" y="375.5559">SGEdge</text><!--MD5=[2f9a29111282a576c69a3d6548bf8838]
entity appHost--><rect fill="#FEFECE" filter="url(#f1lbz2df9dvsgc)" height="39.0679" style="stroke: #000000; stroke-width: 1.5;" width="176" x="144" y="449.66"/><text fill="#000000" font-family="sans-serif" font-size="14" lengthAdjust="spacingAndGlyphs" textLength="156" x="154" y="474.6259">InstanciaAplicacaoMCP</text><!--MD5=[035420844e87c671184ccff7bb88dcb5]
entity sgInternal--><rect fill="#FEFECE" filter="url(#f1lbz2df9dvsgc)" height="39.0679" style="stroke: #000000; stroke-width: 1.5;" width="92" x="186" y="548.73"/><text fill="#000000" font-family="sans-serif" font-size="14" lengthAdjust="spacingAndGlyphs" textLength="72" x="196" y="573.6959">SGInternal</text><!--MD5=[16d0195d488b83634e6af8322ca2d944]
entity clusterMaster--><rect fill="#FEFECE" filter="url(#f1lbz2df9dvsgc)" height="39.0679" style="stroke: #000000; stroke-width: 1.5;" width="177" x="37.5" y="647.8"/><text fill="#000000" font-family="sans-serif" font-size="14" lengthAdjust="spacingAndGlyphs" textLength="157" x="47.5" y="672.7659">InstanciaMasterCluster</text><!--MD5=[c91f97837312c72869a41bb1d7fe2729]
entity clusterWorker--><rect fill="#FEFECE" filter="url(#f1lbz2df9dvsgc)" height="39.0679" style="stroke: #000000; stroke-width: 1.5;" width="178" x="249" y="647.8"/><text fill="#000000" font-family="sans-serif" font-size="14" lengthAdjust="spacingAndGlyphs" textLength="158" x="259" y="672.7659">InstanciaWorkerCluster</text><!--MD5=[c1651280c7028dc78cb695991feaada0]
entity sgDataPlane--><rect fill="#FEFECE" filter="url(#f1lbz2df9dvsgc)" height="39.0679" style="stroke: #000000; stroke-width: 1.5;" width="106" x="179" y="746.86"/><text fill="#000000" font-family="sans-serif" font-size="14" lengthAdjust="spacingAndGlyphs" textLength="86" x="189" y="771.8259">SGDataPlane</text><!--MD5=[53a7890647be042c111b8a807eed420f]
entity internet--><ellipse cx="232" cy="17.89" fill="#FEFECE" filter="url(#f1lbz2df9dvsgc)" rx="8" ry="8" style="stroke: #A80036; stroke-width: 1.5;"/><path d="M232,25.89 L232,52.89 M219,33.89 L245,33.89 M232,52.89 L219,67.89 M232,52.89 L245,67.89 " fill="none" filter="url(#f1lbz2df9dvsgc)" style="stroke: #A80036; stroke-width: 1.5;"/><text fill="#000000" font-family="sans-serif" font-size="14" lengthAdjust="spacingAndGlyphs" textLength="55" x="204.5" y="88.3559">Internet</text><!--MD5=[b9261202703b0f5db9a642a622a50478]
entity igw--><rect fill="#FEFECE" filter="url(#f1lbz2df9dvsgc)" height="39.0679" style="stroke: #000000; stroke-width: 1.5;" width="132" x="166" y="152.46"/><text fill="#000000" font-family="sans-serif" font-size="14" lengthAdjust="spacingAndGlyphs" textLength="112" x="176" y="177.4259">InternetGateway</text><!--MD5=[31e20ffc6f68abff4a32dcbbff2a6878]
entity evidenceStore--><rect fill="#FEFECE" filter="url(#f1lbz2df9dvsgc)" height="39.0679" style="stroke: #000000; stroke-width: 1.5;" width="141" x="161.5" y="845.93"/><text fill="#000000" font-family="sans-serif" font-size="14" lengthAdjust="spacingAndGlyphs" textLength="121" x="171.5" y="870.8959">BucketS3Evidence</text><!--MD5=[b996bd62cf958e075514257ccf1832ec]
link internet to igw--><path d="M232,92.91 C232,110.49 232,130.42 232,145.74 " fill="none" id="internet-&gt;igw" style="stroke: #A80036; stroke-width: 1.0;"/><polygon fill="#A80036" points="232,150.49,236,141.49,232,145.49,228,141.49,232,150.49" style="stroke: #A80036; stroke-width: 1.0;"/><!--MD5=[21ce91f9172eb6db5c6c0be42aa95a08]
link igw to subnetPublic--><path d="M232,191.71 C232,206.78 232,228.13 232,244.73 " fill="none" id="igw-&gt;subnetPublic" style="stroke: #A80036; stroke-width: 1.0;"/><polygon fill="#A80036" points="232,249.56,236,240.56,232,244.56,228,240.56,232,249.56" style="stroke: #A80036; stroke-width: 1.0;"/><!--MD5=[1c41095a9e4665815731d576e567370c]
link subnetPublic to sgEdge--><path d="M232,290.77 C232,305.85 232,327.2 232,343.8 " fill="none" id="subnetPublic-&gt;sgEdge" style="stroke: #A80036; stroke-width: 1.0;"/><polygon fill="#A80036" points="232,348.62,236,339.62,232,343.62,228,339.62,232,348.62" style="stroke: #A80036; stroke-width: 1.0;"/><!--MD5=[3e479ac4f31b96edbd8536b51662af82]
link sgEdge to appHost--><path d="M232,389.84 C232,404.92 232,426.26 232,442.87 " fill="none" id="sgEdge-&gt;appHost" style="stroke: #A80036; stroke-width: 1.0;"/><polygon fill="#A80036" points="232,447.69,236,438.69,232,442.69,228,438.69,232,447.69" style="stroke: #A80036; stroke-width: 1.0;"/><!--MD5=[d91389592767a40df8e787b65abd693c]
link appHost to sgInternal--><path d="M232,488.91 C232,503.99 232,525.33 232,541.94 " fill="none" id="appHost-&gt;sgInternal" style="stroke: #A80036; stroke-width: 1.0;"/><polygon fill="#A80036" points="232,546.76,236,537.76,232,541.76,228,537.76,232,546.76" style="stroke: #A80036; stroke-width: 1.0;"/><!--MD5=[bfd5820d842a9e4fbbf52d042613c172]
link sgInternal to clusterMaster--><path d="M211.31,588.21 C194.09,603.98 169.52,626.48 151.16,643.29 " fill="none" id="sgInternal-&gt;clusterMaster" style="stroke: #A80036; stroke-width: 1.0;"/><polygon fill="#A80036" points="147.75,646.41,157.0906,643.2869,151.4393,643.0353,151.691,637.384,147.75,646.41" style="stroke: #A80036; stroke-width: 1.0;"/><!--MD5=[d08bcf494f555cd9ef7cd0f4d3cd4f3d]
link sgInternal to clusterWorker--><path d="M252.69,588.21 C269.91,603.98 294.48,626.48 312.84,643.29 " fill="none" id="sgInternal-&gt;clusterWorker" style="stroke: #A80036; stroke-width: 1.0;"/><polygon fill="#A80036" points="316.25,646.41,312.309,637.384,312.5607,643.0353,306.9094,643.2869,316.25,646.41" style="stroke: #A80036; stroke-width: 1.0;"/><!--MD5=[e4195799956bd14499ceae99dd287ee7]
link clusterMaster to sgDataPlane--><path d="M146.69,687.28 C163.91,703.04 188.48,725.55 206.84,742.36 " fill="none" id="clusterMaster-&gt;sgDataPlane" style="stroke: #A80036; stroke-width: 1.0;"/><polygon fill="#A80036" points="210.25,745.48,206.309,736.454,206.5607,742.1053,200.9094,742.3569,210.25,745.48" style="stroke: #A80036; stroke-width: 1.0;"/><!--MD5=[d867e2aae44d199f73df77abc6ae0887]
link clusterWorker to sgDataPlane--><path d="M317.31,687.28 C300.09,703.04 275.52,725.55 257.16,742.36 " fill="none" id="clusterWorker-&gt;sgDataPlane" style="stroke: #A80036; stroke-width: 1.0;"/><polygon fill="#A80036" points="253.75,745.48,263.0906,742.3569,257.4393,742.1053,257.691,736.454,253.75,745.48" style="stroke: #A80036; stroke-width: 1.0;"/><!--MD5=[5de9c9243993ab59dbead815fc0b037d]
link sgDataPlane to evidenceStore--><path d="M232,786.11 C232,801.19 232,822.54 232,839.14 " fill="none" id="sgDataPlane-&gt;evidenceStore" style="stroke: #A80036; stroke-width: 1.0;"/><polygon fill="#A80036" points="232,843.96,236,834.96,232,838.96,228,834.96,232,843.96" style="stroke: #A80036; stroke-width: 1.0;"/><!--MD5=[f0c1ccdb05480ceb62d116313e235eef]
@startuml
top to bottom direction
skinparam backgroundColor transparent

actor Internet as internet
rectangle InternetGateway as igw
frame VPCLaboratorio as vpc {
  rectangle SubnetPublic as subnetPublic
  rectangle SGEdge as sgEdge
  rectangle InstanciaAplicacaoMCP as appHost
  rectangle SGInternal as sgInternal
  rectangle InstanciaMasterCluster as clusterMaster
  rectangle InstanciaWorkerCluster as clusterWorker
  rectangle SGDataPlane as sgDataPlane
}
rectangle BucketS3Evidence as evidenceStore
internet - -> igw
igw - -> subnetPublic
subnetPublic - -> sgEdge
sgEdge - -> appHost
appHost - -> sgInternal
sgInternal - -> clusterMaster
sgInternal - -> clusterWorker
clusterMaster - -> sgDataPlane
clusterWorker - -> sgDataPlane
sgDataPlane - -> evidenceStore
@enduml

PlantUML version 1.2020.02(Sun Mar 01 07:22:07 GMT-03:00 2020)
(GPL source distribution)
Java Runtime: OpenJDK Runtime Environment
JVM: OpenJDK 64-Bit Server VM
Java Version: 25+36-LTS
Operating System: Linux
Default Encoding: UTF-8
Language: en
Country: US
--></g></svg>